<?xml version="1.0" encoding="utf-8"?>
<!-- Generator: Adobe Illustrator 23.0.2, SVG Export Plug-In . SVG Version: 6.00 Build 0)  -->
<svg version="1.1" id="Layer_1" xmlns="http://www.w3.org/2000/svg" xmlns:xlink="http://www.w3.org/1999/xlink" x="0px" y="0px"
	 viewBox="0 0 3200 800" style="enable-background:new 0 0 3200 800;" xml:space="preserve">
<style type="text/css">
	.st0{fill:#FFFFFF;}
</style>
<g>
	<path class="st0" d="M176.69,563.52c-85.28,2.62-164.24-71.56-163.73-164.64c0.47-86.83,76.09-165.15,168.88-162.41
		c82.93,2.46,159.44,74.95,158.36,165.82C339.15,491.58,263.07,565.93,176.69,563.52z M178.71,356.95
		c24.13-0.01,42.49-18.59,42.47-42.97c-0.01-24.17-18.59-42.54-43.02-42.52c-23.94,0.02-42.14,18.53-42.55,42.46
		C135.14,340.79,159.61,359.03,178.71,356.95z M306.87,373.54c0.04-24.05-18.27-42.29-42.47-42.31
		c-24.36-0.01-43.09,18.05-43.22,41.7c-0.13,24.58,18.53,43.76,42.59,43.8C288.25,416.74,306.82,398.14,306.87,373.54z M92.4,416.71
		c24.14,0.04,43.26-19.03,43.3-43.16c0.04-23.59-18.76-42.27-42.61-42.33c-24.68-0.06-43.09,18-43.06,42.24
		C50.04,397.8,68.53,416.67,92.4,416.71z M125.95,520c24.23,0.02,43.15-18.88,43.18-43.18c0.05-23.75-18.59-42.27-42.58-42.31
		c-24.53-0.04-43.13,18.21-43.1,42.29C83.48,500.99,102.17,519.98,125.95,520z M274.81,477.22c0.14-23.58-18.31-41.97-41.59-42.85
		c-26.65-1.01-44.14,21.54-44.15,41.45c0,24.37,18.28,44.04,41.57,44.18C255.54,520.15,274.66,501.64,274.81,477.22z"/>
	<path class="st0" d="M243.67,554.81c41.48-19.41,69.73-50,88.75-91.35c35.32-10.04,71.27-20.72,107.47-30.42
		c25.36-6.79,51.01-12.67,77.47-13.48c23.21-0.7,46.32,0.02,68.64,7.3c25.97,8.48,50.01,20.62,70.82,38.57
		c1.7,1.46,3.15,3.6,3.89,5.71c8.14,22.88,16.12,45.81,24.13,68.73c0.31,0.88,0.34,1.84,0.4,2.17c-12.5-8.29-24.68-17.5-37.87-24.91
		c-31.59-17.73-65.83-25.66-102.05-27.02c-41.6-1.57-81.1,8.76-120.64,19.19c-42.39,11.17-84.56,23.14-126.93,34.31
		c-16.6,4.37-33.53,7.5-50.32,11.16C246.72,554.94,245.94,554.81,243.67,554.81z"/>
	<path class="st0" d="M836.86,506.06c-9.49,0-18.53,0-27.9,0c-13.93-46.02-27.83-91.97-41.73-137.91c-0.36,0.02-0.71,0.06-1.07,0.08
		c0,45.79,0,91.6,0,137.72c-11.72,0-22.68,0-33.94,0c0-57.78,0-115.28,0-173.26c20.84,0,41.7,0,63.15,0
		c10,33.98,20.05,68.21,30.55,103.89c11.02-35.73,21.55-69.88,32.08-104.01c21.22,0,42.1,0,63.27,0c0,57.84,0,115.33,0,173.27
		c-13.37,0-26.67,0-40.65,0c0-45.72,0-91.29,0-136.86c-0.49-0.08-0.96-0.15-1.45-0.24C865.11,414.33,851.07,459.93,836.86,506.06z"
		/>
	<path class="st0" d="M2195.85,506.1c-13.61,0-26.62,0-40.24,0c0-46.16,0-92.14,0-138.13c-0.46-0.08-0.93-0.17-1.39-0.25
		c-14.21,46.11-28.44,92.24-42.65,138.37c-9.42,0-18.28,0-27.87,0c-13.8-45.57-27.64-91.28-41.47-136.99
		c-0.45,0.04-0.89,0.06-1.34,0.09c0,45.57,0,91.14,0,136.82c-11.81,0-22.63,0-33.83,0c0-57.89,0-115.51,0-173.47
		c20.96,0,41.65,0,62.97,0c9.94,33.81,19.9,67.7,29.86,101.58c0.46,0.08,0.93,0.15,1.39,0.24c10.5-33.97,20.99-67.95,31.49-101.93
		c21.18,0,41.9,0,63.07,0C2195.85,390.3,2195.85,447.94,2195.85,506.1z"/>
	<path class="st0" d="M2828.81,332.53c10.55,0,20.39,0,30.61,0c0,57.78,0,115.26,0,173.25c-11.31,0-22.67,0-34.49,0
		c-22-38.05-44.23-76.5-67.28-116.38c0,39.88,0,78.05,0,116.55c-10.34,0-20.35,0-30.83,0c0-57.58,0-115.21,0-173.29
		c14.22,0,28.57,0,43.53,0c19.19,33.33,38.57,67.01,58.49,101.6C2828.81,399.66,2828.81,366.31,2828.81,332.53z"/>
	<path class="st0" d="M3085.3,389.32c0,39.96,0,78.06,0,116.55c-10.35,0-20.49,0-30.96,0c0-57.68,0-115.15,0-173.15
		c14.31,0,28.64,0,43.73,0c19.07,33.14,38.47,66.83,58.41,101.5c0-34.57,0-67.88,0-101.6c10.14,0,20.11,0,30.56,0
		c0,57.74,0,115.36,0,173.31c-11.37,0-22.59,0-34.32,0C3130.66,467.79,3108.42,429.34,3085.3,389.32z"/>
	<path class="st0" d="M2398.88,332.58c13.16,0,25.93,0,39.19,0c0,22.45,0,44.55,0,67.12c18.36,0,36.21,0,54.53,0
		c0-22.33,0-44.44,0-67.01c13.37,0,26.3,0,39.69,0c0,57.61,0,115.23,0,173.22c-12.94,0-25.87,0-39.39,0c0-23.58,0-47.04,0-70.99
		c-18.41,0-36.24,0-54.63,0c0,23.66,0,47.12,0,70.96c-13.32,0-26.08,0-39.38,0C2398.88,448.34,2398.88,390.72,2398.88,332.58z"/>
	<path class="st0" d="M1761.63,505.99c-15.32,0-29.67,0-44.68,0c-11.33-24.66-22.78-49.59-34.64-75.4
		c-8.28,12.09-16.19,23.52-23.89,35.11c-0.87,1.29-0.63,3.43-0.64,5.18c-0.05,11.47-0.02,22.94-0.02,34.91c-13.14,0-26.08,0-39.5,0
		c0-57.48,0-115.12,0-173.16c12.95,0,25.88,0,39.32,0c0,26.63,0,53.05,0,79.46c0.4,0.17,0.82,0.32,1.22,0.49
		c17.82-26.67,35.64-53.33,53.49-80.02c12.76,0,25.3,0,38.79,0c-14.08,20.96-27.72,41.23-41.54,61.79
		C1726.83,431.37,1744.09,468.38,1761.63,505.99z"/>
	<path class="st0" d="M1285.49,332.43c15.84,0,31.23,0,47.19,0c18.05,57.73,36.09,115.4,54.27,173.53c-14.7,0-28.85,0-43.64,0
		c-3.51-11.6-7.1-23.42-10.66-35.18c-19.06,0-37.59,0-56.46,0c-3.6,11.68-7.15,23.19-10.8,35.06c-11.58,0-23.14,0-35.51,0
		C1248.42,448.05,1266.88,390.49,1285.49,332.43z M1304.75,377.06c-6.53,21.45-12.53,41.15-18.57,61c12.51,0,24.4,0,36.79,0
		C1316.98,417.96,1311.13,398.37,1304.75,377.06z"/>
	<path class="st0" d="M1820.95,332.45c15.73,0,31.12,0,47.19,0c18.02,57.61,36.06,115.28,54.26,173.46c-14.81,0-29.11,0-43.68,0
		c-3.51-11.68-7.05-23.39-10.59-35.16c-18.97,0-37.51,0-56.43,0c-3.64,11.78-7.25,23.42-10.91,35.25c-11.72,0-23.13,0-35.48,0
		C1783.92,447.94,1802.42,390.25,1820.95,332.45z M1858.5,438.31c-6-20.1-11.9-39.86-18.28-61.28
		c-6.53,21.48-12.53,41.2-18.64,61.28C1833.94,438.31,1845.58,438.31,1858.5,438.31z"/>
	<path class="st0" d="M2707.27,506.14c-14.98,0-29.02,0-43.64,0c-3.56-11.75-7.14-23.59-10.7-35.36c-19.04,0-37.58,0-56.46,0
		c-3.6,11.67-7.15,23.18-10.82,35.06c-11.56,0-23.14,0-35.51,0c18.58-57.94,37.09-115.65,55.61-173.41c15.81,0,31.2,0,47.18,0
		C2670.98,390.13,2689.03,447.82,2707.27,506.14z M2643.27,438.22c-6.01-20.09-11.88-39.79-18.28-61.18
		c-6.54,21.55-12.53,41.23-18.59,61.18C2619.08,438.22,2630.85,438.22,2643.27,438.22z"/>
	<path class="st0" d="M2933.43,332.47c15.96,0,31.32,0,47.22,0c18.07,57.78,36.1,115.46,54.27,173.56c-14.77,0-28.96,0-43.63,0
		c-3.5-11.56-7.05-23.24-10.66-35.18c-18.74,0-37.26,0-56.44,0c-3.54,11.41-7.15,23.07-10.85,35.05c-11.6,0-23.16,0-35.49,0
		C2896.4,447.94,2914.86,390.38,2933.43,332.47z M2952.69,377.04c-6.53,21.49-12.53,41.21-18.6,61.23c12.62,0,24.42,0,36.89,0
		C2964.97,418.15,2959.08,398.42,2952.69,377.04z"/>
	<path class="st0" d="M1096.49,506.05c-14.9,0-29.08,0-43.64,0c-3.56-11.75-7.09-23.4-10.67-35.26c-18.79,0-37.32,0-56.42,0
		c-3.57,11.54-7.18,23.2-10.88,35.14c-11.65,0-23.23,0-35.5,0c18.56-57.86,37.05-115.55,55.61-173.4c15.77,0,31.12,0,47.24,0
		C1060.23,390.09,1078.3,447.87,1096.49,506.05z M995.67,438.2c12.49,0,24.26,0,36.86,0c-5.96-19.91-11.77-39.33-17.58-58.76
		c-0.49,0.07-0.99,0.13-1.47,0.2C1007.57,399.04,1001.67,418.44,995.67,438.2z"/>
	<path class="st0" d="M1492.37,332.56c11.62,0,22.4,0,34,0c-17.56,58.18-34.94,115.81-52.35,173.47c-14.91,0-29.29,0-43.91,0
		c-17.32-57.69-34.6-115.21-52.05-173.34c14.64,0,28.72,0,43.18,0c11.39,40.5,22.81,81.16,34.23,121.81
		c0.44,0.02,0.89,0.04,1.33,0.06C1468.65,413.98,1480.48,373.37,1492.37,332.56z"/>
	<path class="st0" d="M1225.8,471.76c0,10.85,0.01,20.71-0.01,30.56c0,1.14-0.2,2.28-0.33,3.66c-36.64,0-72.95,0-109.66,0
		c0-57.71,0-115.32,0-173.35c13.33,0,26.67,0,40.62,0c0,46.23,0,92.38,0,139.14C1179.65,471.76,1202.28,471.76,1225.8,471.76z"/>
	<path class="st0" d="M1582.36,506.11c-13.32,0-26.16,0-39.49,0c0-57.77,0-115.37,0-173.44c13.04,0,26.14,0,39.49,0
		C1582.36,390.55,1582.36,448.3,1582.36,506.11z"/>
	<path class="st0" d="M2362.71,375.21c-10.66-25.27-27.73-42.31-56.5-45.29c-31.37-3.25-57.26,9.15-71.22,37.36
		c-17.77,35.9-16.67,72.32,2.32,107.61c10.5,19.51,27.25,30.8,49.56,33.53c32.6,3.99,57.81-9.09,72.98-38.19
		c8.24-15.8,11.15-32.83,11.39-50.45C2371.26,404.37,2368.72,389.45,2362.71,375.21z M2301.16,475.48c-0.05,0-0.09,0.01-0.14,0.01
		c-1.35,0.14-2.74,0.23-4.23,0.23c-24.97,0.02-31.63-25.28-31.63-56.45s6.03-56.45,31.63-56.45c0.17,0,0.32,0.01,0.49,0.01
		c0.28,0,0.57-0.01,0.87-0.01c4.19,0.08,8.01,0.9,11.35,2.43c13.46,5.98,17.7,22.43,18.68,42.87c0.05,0.23,0.08,0.44,0.13,0.66
		c0.64,3.27,0.15,6.76,0.12,10.16c0,0.11,0,0.21,0,0.31c0,0.06,0,0.12,0,0.19c0.55,0.08,0.37,8.03-0.24,11.93
		C2327.14,455.14,2321.97,473.27,2301.16,475.48z"/>
</g>
</svg>
