<?xml version="1.0" encoding="utf-8"?>
<!-- Generator: Adobe Illustrator 23.0.2, SVG Export Plug-In . SVG Version: 6.00 Build 0)  -->
<svg version="1.1" id="Layer_1" xmlns="http://www.w3.org/2000/svg" xmlns:xlink="http://www.w3.org/1999/xlink" x="0px" y="0px"
	 viewBox="0 0 4800 1200" style="enable-background:new 0 0 4800 1200;" xml:space="preserve">
<style type="text/css">
	.st0{fill:#FFFFFF;}
</style>
<g>
	<path class="st0" d="M48.36,599.07c-1.18-137.99,117.98-244.94,248.72-241.61c123.13,3.14,236.83,107,236.23,243.92
		c-0.57,132.77-113.59,244.4-248.45,241.17C164.56,839.66,46.61,738.63,48.36,599.07z M293.01,409.45
		c-33.28-1.84-63.78,27.86-63.19,62.79c0.6,35.91,28.21,64,63.89,63.89c35.14-0.09,63.51-29.17,63.46-64.6
		C357.13,438.15,327.54,407.26,293.01,409.45z M166.56,623.7c35.78-0.02,63.78-28.34,63.35-64.07
		c-0.41-35.06-28.68-62.75-63.89-62.61c-35.48,0.15-63.22,27.85-63.24,63.15C102.79,596.33,130.3,623.73,166.56,623.7z
		 M420.56,623.7c29.41,2.36,63.73-25.29,63.52-62.75c-0.2-35.65-28.05-63.93-63.78-63.92c-35.44,0.01-62.64,27.62-63.32,63
		C356.26,598.19,390.39,626.14,420.56,623.7z M152.83,712.66c-0.19,36.52,26.86,64.14,62.99,64.3
		c35.91,0.16,63.87-27.69,63.88-63.63c0.01-35.22-27.76-62.92-63.21-63.01C180.51,650.21,153.02,677.14,152.83,712.66z
		 M373.15,776.97c35.24-0.12,62.9-27.78,63.22-63.21c0.33-35.34-28.28-63.69-64.04-63.45c-35.78,0.25-63.17,27.64-63.09,63.09
		C309.32,749.48,337.07,777.08,373.15,776.97z"/>
	<path class="st0" d="M1044.26,811.19c-3.91-2.92-6.74-4.91-9.43-7.07c-47.15-37.86-100.77-60.85-160.7-68.35
		c-46.85-5.86-93.64-4.81-139.59,7.14c-83.09,21.62-165.98,44.09-249.11,65.59c-29.01,7.51-58.48,13.22-88.56,17.9
		c1.26-1.03,2.36-2.35,3.77-3.05c52.51-26.02,89.53-67.15,115.49-118.88c3.43-6.83,7.67-10.74,15-13.04
		c65.95-20.7,132.16-40.35,199.81-54.86c41.63-8.93,83.66-11.92,125.79-5.91c53.77,7.67,101.72,29.44,143.55,64.23
		c3.43,2.85,6.62,6.9,8.09,11.04c11.84,33.08,23.24,66.32,34.73,99.52C1043.59,806.83,1043.71,808.34,1044.26,811.19z"/>
	<path class="st0" d="M1330.53,555.71c-20.6,66.7-41.2,133.4-61.92,200.53c-13.55,0-26.73,0-41.45,0
		c-20.14-66.53-40.42-133.52-60.7-200.5c-0.82,0.11-1.63,0.21-2.45,0.33c0,66.44,0,132.89,0,200.04c-17.21,0-33.08,0-49,0
		c-2.57-7.79-3.51-238.15-0.88-256.5c30.54,0,61.22,0,93.15,0c14.66,49.65,29.43,99.72,44.21,149.78c0.72,0.11,1.42,0.21,2.13,0.32
		c15.46-50.05,30.91-100.1,46.43-150.34c31.49,0,62.19,0,93.64,0c0,85.58,0,170.59,0,255.61c-8.48,2.39-46.92,2.72-60.07,0.28
		c0-66.3,0-132.84,0-199.38C1332.58,555.81,1331.55,555.76,1330.53,555.71z"/>
	<path class="st0" d="M3189.14,499.33c31.93,0,62.3,0,93.48,0c0,85.52,0,170.52,0.01,255.51c-8.12,2.51-46.59,2.93-60.23,0.35
		c0-66.12,0-132.56,0-198.99c-0.93-0.13-1.85-0.25-2.78-0.38c-20.56,66.57-41.12,133.13-61.88,200.31c-13.61,0-27.12,0-41.56,0
		c-20.29-67.08-40.61-134.25-60.92-201.4c-0.68,0.07-1.37,0.14-2.05,0.21c0,66.72,0,133.44,0,201.03c-17.42,0-33.56,0-50.49,0
		c0-85.33,0-170.32,0-255.25c8.76-2.37,69.95-3.18,93.63-1.14c14.57,49.32,29.3,99.18,44.03,149.04c0.87,0.07,1.74,0.15,2.62,0.22
		C3158.33,599.11,3173.69,549.38,3189.14,499.33z"/>
	<path class="st0" d="M4220.9,644.45c0-48.13,0-96.27,0-145.03c15.74,0,30.36,0,45.71,0c0,85.58,0,170.56,0,257.27
		c-16.86,0.25-33.44,0.13-51.07,0.02c-32.56-56.16-65.18-112.41-97.79-168.66c-0.57,0.14-1.15,0.28-1.74,0.41
		c0,55.49,0,110.99,0,167.41c-15.93,0-30.87,0-46.6,0c0-85.24,0-170.21,0-255.97c10.6-2.32,21.48-0.79,32.22-1.07
		c10.52-0.28,21.07-0.06,32.3-0.06c28.21,48.88,56.36,97.66,84.5,146.45C4219.26,644.98,4220.08,644.72,4220.9,644.45z"/>
	<path class="st0" d="M4705.93,499.4c16.33,0,30.64,0,45.72,0c0,85.6,0,170.59,0,256.51c-16.8,0-33.41,0-51.29,0
		c-32.13-55.41-64.7-111.61-97.29-167.8c-0.72,0.21-1.44,0.43-2.16,0.65c0,55.55,0,111.11,0,167.36c-15.68,0-30.35,0-44.96,0
		c-2.37-8.63-2.9-242.56-0.4-257.33c13.69,0,27.78,1.23,41.56-0.32c16.63-1.87,25.57,4.2,33.52,19.06
		c21.36,39.93,44.8,78.77,67.44,118.01c1.88,3.26,4.01,6.38,7.85,9.14C4705.93,596.58,4705.93,548.48,4705.93,499.4z"/>
	<path class="st0" d="M3721.66,499.19c20.74,0,39.44,0,58.03,0c2.56,8.82,3,244.32,0.46,256.97c-18.8,0-37.75,0-58.02,0
		c0-34.98,0-69.56,0-104.98c-27.23,0-53.11,0-80.36,0c0,35.06,0,69.65,0,104.92c-20.25,0-39.14,0-58.73,0c0-85.65,0-170.68,0-256.51
		c19.24,0,38.15,0,58.33,0c0,32.88,0,65.52,0,99.01c27.17,0,53.09,0,80.3,0C3721.66,565.66,3721.66,533.03,3721.66,499.19z"/>
	<path class="st0" d="M3543.09,623.83c-0.52,31.83-5.57,58-18.39,82.47c-22.33,42.66-60.83,57.97-104.28,54.13
		c-34.13-3.01-59.14-20.4-76.36-49.69c-19.21-32.68-24.03-68.12-20.35-105.17c1.99-20.02,7.3-39.04,17.22-56.76
		c20.18-36.06,50.74-53.8,92.03-53.9c32.39-0.07,59.96,9.96,79.81,36.62c15.21,20.45,24.22,43.64,27.96,68.8
		C3542.1,609.58,3542.63,618.95,3543.09,623.83z M3386.29,627.47c0,5.47-0.4,10.97,0.07,16.39c1.4,15.98,3.21,31.91,11.32,46.25
		c7.98,14.13,19.88,21.4,36.37,21.22c15.78-0.16,26.73-7.81,33.68-21.32c3.18-6.18,5.72-12.88,7.35-19.64
		c5.09-21.07,5.62-42.51,3.55-64.01c-1.35-14.04-3.81-27.81-10.4-40.56c-7.35-14.19-18.89-21.49-34.81-21.49
		c-15.73,0-28.05,6.52-35.53,20.57c-3.08,5.79-5.88,12.11-7.05,18.5C3388.18,597.9,3385.73,627.4,3386.29,627.47z"/>
	<path class="st0" d="M2623.55,499.55c-20.94,31.07-40.94,60.75-61.55,91.33c25.43,54.43,50.99,109.11,77.15,165.09
		c-22.74,0-43.94,0-66.38,0c-16.56-35.82-33.4-72.23-50.72-109.72c-2.36,2.53-4.29,4.16-5.68,6.17
		c-8.9,12.84-17.51,25.89-26.58,38.63c-3.37,4.73-4.66,9.52-4.57,15.25c0.26,16.33,0.09,32.67,0.09,49.76c-19.99,0-38.88,0-58.51,0
		c0-85.45,0-170.47,0-256.38c18.93,0,37.84,0,57.86,0c0,38.47,0,76.98,0,115.48c0.74,0.34,1.49,0.68,2.23,1.03
		c1.97-2.45,4.14-4.79,5.89-7.39c22.63-33.75,45.32-67.45,67.63-101.42c4.06-6.18,8.23-9.24,16-8.8c12.47,0.73,25,0.16,37.51,0.22
		C2616.48,498.83,2619.05,499.2,2623.55,499.55z"/>
	<path class="st0" d="M2083.23,756.42c-22.69,0-43.33,0-64.61,0c-5.29-17.31-10.51-34.43-15.93-52.15c-27.51,0-54.71,0-83.13,0
		c-5.37,16.82-10.91,34.2-16.59,52c-17.07,0-33.74,0-52.29,0c27.08-86.17,54.77-171.28,82.12-256.87c23.61,0,46.52,0,70.24,0
		C2029.65,584.69,2056.23,669.87,2083.23,756.42z M1988.35,655.53c-8.82-29.38-17.25-57.46-25.69-85.55
		c-0.8,0.09-1.61,0.19-2.4,0.27c-8.54,28.13-17.08,56.26-25.89,85.28C1952.87,655.53,1969.58,655.53,1988.35,655.53z"/>
	<path class="st0" d="M2812.28,756.02c-5.36-17.57-10.59-34.67-15.89-52.05c-27.86,0-55.1,0-82.95,0
		c-5.61,17.58-11.13,34.94-16.7,52.42c-17.58,0-34.25,0-52.48,0c27.6-86.17,54.93-171.48,82.36-257.07c23.66,0,46.58,0,70.23,0
		c26.61,85.31,53.2,170.48,80.1,256.7C2855.15,756.02,2834.35,756.02,2812.28,756.02z M2728.22,655.25c18.46,0,35.34,0,53.8,0
		c-8.68-29.05-17.04-57.02-25.4-84.99c-0.82-0.01-1.65-0.04-2.48-0.05C2745.59,598.29,2737.03,626.35,2728.22,655.25z"/>
	<path class="st0" d="M4040.37,756.43c-22.12,0-42.76,0-64.63,0c-5.27-17.27-10.56-34.64-15.96-52.39c-27.75,0-54.99,0-83.06,0
		c-5.5,17.33-11.03,34.7-16.62,52.29c-17.43,0-34.1,0-52.5,0c27.57-86.05,54.87-171.31,82.3-256.93c23.6,0,46.49,0,70.29,0
		C3986.72,584.51,4013.3,669.66,4040.37,756.43z M3945.35,655.41c-8.63-28.96-16.97-56.98-25.32-85.01c-0.8-0.07-1.6-0.13-2.39-0.2
		c-4.33,13.92-8.95,27.76-12.93,41.79c-4.06,14.3-9.81,28.2-12.27,43.41C3910.51,655.41,3927.14,655.41,3945.35,655.41z"/>
	<path class="st0" d="M4375.61,499.17c23.85,0,46.44,0,70.1,0c26.67,85.48,53.34,170.92,80.23,257.12c-22.24,0-43.19,0-64.63,0
		c-5.33-17.47-10.55-34.58-15.92-52.19c-27.53,0-54.75,0-83.06,0c-5.44,17.1-10.98,34.44-16.61,52.14c-17.23,0-33.89,0-52.37,0
		C4320.54,670.31,4348.06,585.19,4375.61,499.17z M4405.65,570.41c-0.9,0.04-1.81,0.08-2.71,0.12
		c-8.52,28.02-17.03,56.03-25.7,84.56c18.66,0,35.52,0,53.66,0C4422.25,626.1,4413.95,598.26,4405.65,570.41z"/>
	<path class="st0" d="M1472.79,756.49c-17.62,0-33.96,0-50.31,0c-0.04-9.11,68.63-227.62,80.74-257.08c22.69,0,45.64,0,69.62,0
		c26.53,85.02,53.12,170.24,80.07,256.58c-21.95,0-42.73,0-64.57,0c-5.28-17.17-10.65-34.6-16.05-52.14c-27.68,0-54.59,0-82.89,0
		C1483.99,721.01,1478.51,738.36,1472.79,756.49z M1532.56,569.95c-0.76-0.13-1.51-0.26-2.28-0.39
		c-8.63,28.4-17.27,56.78-26.09,85.83c18.65,0,35.62,0,53.85,0C1549.38,626.31,1540.97,598.13,1532.56,569.95z"/>
	<path class="st0" d="M2240.11,499.31c16.9,0,32.81,0,50.39,0c-25.92,86.11-51.61,171.48-77.37,257.05c-21.85,0-42.86,0-65.37,0
		c-25.55-85.16-51.18-170.56-77.1-256.93c21.97,0,42.51,0,64.12,0c16.81,59.59,33.62,119.2,50.37,178.59
		c0.77,0.18,1.08,0.34,1.34,0.28c0.36-0.08,0.83-0.25,1.01-0.53c0.61-0.97,1.33-1.96,1.64-3.05
		C2206.03,616.63,2222.9,558.53,2240.11,499.31z"/>
	<path class="st0" d="M1742.01,499.55c0,68.51,0,136.35,0,205.89c34.36,0.43,67.72-0.02,102.64,0.28
		c0.38,16.97,0.18,33.15,0.09,50.23c-54.49,0-108.2,0-161.97,0c-2.42-7.93-3.14-240.27-0.63-256.39
		C1701.36,499.55,1720.7,499.55,1742.01,499.55z"/>
	<path class="st0" d="M2373.1,756.24c-19.67,0-38.69,0-58.47,0c0-85.56,0-170.53,0-256.16c9.34-2.7,19.07-0.91,28.64-1.23
		c9.74-0.32,19.48-0.07,29-0.07C2374.91,507.55,2375.61,740.58,2373.1,756.24z"/>
</g>
</svg>
