<?xml version="1.0" encoding="utf-8"?>
<!-- Generator: Adobe Illustrator 24.3.0, SVG Export Plug-In . SVG Version: 6.00 Build 0)  -->
<svg version="1.1" id="Layer_1" xmlns="http://www.w3.org/2000/svg" xmlns:xlink="http://www.w3.org/1999/xlink" x="0px" y="0px"
	 viewBox="0 0 6400 1600" style="enable-background:new 0 0 6400 1600;" xml:space="preserve">
<style type="text/css">
	.st0{fill:#EF3D3B;}
</style>
<g>
	<g id="XMLID_1_">
		<g>
			<path class="st0" d="M6381.7,663.1c0,116.4,0,231.7,0,348.2c-23.9,0-46.4,0-69.7,0c-44.5-76.9-89-153.8-133.5-230.8
				c-0.6,0.3-1.1,0.5-1.7,0.8c0,76.3,0,152.5,0,229.6c-20.7,0-41.1,0-62.3,0c0-115.6,0-230.8,0-347.2c3.2-0.3,6.6-0.8,10-0.8
				c22.6-0.1,45.2,0.3,67.8-0.2c7.5-0.2,11.2,2.9,14.8,9c34.7,60.6,69.6,121,104.5,181.4c2,3.4,4.1,6.7,7.5,12.3
				c0-68.6,0-134.7,0-202.6C6340.4,662.9,6360.8,662.6,6381.7,663.1z"/>
			<path class="st0" d="M6076.2,1011.2c-30,0-58.4,0-87.7,0c-7.3-24.2-14.3-47.3-21.3-70.5c-37.9,0-75.1,0-112.7,0
				c-7.4,23.7-14.7,47.1-22,70.6c-23.7,0-46.6,0-71.5,0c37.3-116.4,74.3-231.8,111.4-347.8c31.8,0,63,0,94.8,0
				C6003.5,779.3,6039.7,894.8,6076.2,1011.2z M5874.3,875c25.4,0,48.6,0,73.2,0c-11.9-39.7-23.4-78.4-35-117.1
				c-0.9,0-1.8-0.1-2.6-0.1C5898.2,796.5,5886.4,835.1,5874.3,875z"/>
			<path class="st0" d="M5723.6,663.8c2.3,8.7,3,331.7,0.5,348c-7.1,0-14.5,0-21.9,0c-11.9,0-23.8-0.6-35.7,0.2
				c-8.3,0.5-12.7-2.7-16.7-9.7c-32.7-57.1-65.7-114-98.6-171c-9.5-16.4-19-32.8-30.4-48.9c0,38,0,75.9,0,113.9c0,38,0,76,0,114.7
				c-21.5,0-41.8,0-63,0c0-115.6,0-230.9,0-347.4c3.8-0.2,7.6-0.7,11.4-0.7c21.4-0.1,42.8,0.4,64.2-0.2c8.7-0.2,13.5,2.6,17.7,10.1
				c34.1,59.9,68.7,119.6,103.1,179.3c2.2,3.8,4.4,7.4,6.7,11.2c0.7-0.2,1.5-0.3,2.2-0.5c0-66,0-132.1,0-199
				C5683.7,663.8,5703.7,663.8,5723.6,663.8z"/>
			<path class="st0" d="M5419.5,1011.1c-30.1,0-58.4,0-87.6,0c-7.1-23.5-14.2-46.9-21.4-70.4c-37.9,0-75,0-112.7,0
				c-7.4,23.7-14.6,47-22,70.6c-23.7,0-46.5,0-71.4,0c36.9-116.4,74.2-231.7,111.3-347.8c32.4,0,63.2,0,94.7,0
				C5346.8,779.2,5383,894.6,5419.5,1011.1z M5219.8,875.3c22.9,0,45.8,0,71.2,0c-12-40.2-23.6-78.9-35.4-118.7
				C5249,768.2,5219.7,866.3,5219.8,875.3z"/>
			<path class="st0" d="M5068.2,663.6c0,116,0,231.3,0,347.4c-26.4,0-52.3,0-79.6,0c0-47.6,0-94.7,0-142.3c-36.5,0-71.7,0-108.6,0
				c0,47.7,0,94.4,0,140.7c-9.2,2.8-56.9,3.7-78.7,1.6c-2.4-8.1-3.3-329.8-0.9-347.4c25.9,0,51.9,0,79.3,0c0,45,0,89.6,0,134.7
				c36.6,0,71.8,0,108.5,0c0.6-44.9,0-89.5,0.4-134.8C5015.9,663.6,5041.8,663.6,5068.2,663.6z"/>
			<path class="st0" d="M4708.8,712.5c27.1,40.2,38.4,84.8,36.9,132.8c-1.1,36.2-9,70.6-26.9,102.4c-25.9,45.9-65.4,68.3-117.8,69.4
				c-21.2,0.4-41.8-2.1-61.6-10.4c-19.5-8.1-35.6-20.6-48.6-37.1c-24.2-30.8-37.3-66-41.2-104.7c-1-9.5-1.4-19-1.8-24.9
				c0.6-43.4,7.6-81.5,28.7-116.1c26.9-44,66.4-65.4,117.5-66.2c25.3-0.4,49.7,3.1,72.3,15.7
				C4683.6,683.1,4697.7,696.1,4708.8,712.5z M4654,895.5c7.9-31.1,7.5-62.8,4.1-94.5c-1.7-16.2-5.3-32-12.7-46.7
				c-9.6-19.1-24.7-29.5-46.2-30c-22.1-0.5-39.3,8.5-49.7,28.3c-4,7.7-7.8,15.9-9.3,24.2c-3.5,19.4-5.6,39.1-8.3,59.5
				c2.7,20.3,4.9,41.2,8.5,61.8c2,11.8,7.6,22.4,14.6,32.2c19.3,27,68,28.4,86.2-3.2C4646.8,917.4,4651.2,906.4,4654,895.5z"/>
			<path class="st0" d="M4393,663.4c2.4,9,3.1,332.7,0.6,347.6c-26.2,0-52.5,0-80.5,0c0-92.3,0-183.4,0-274.5
				c-0.8-0.2-1.6-0.4-2.5-0.6c-14.8,45.6-28.5,91.6-42.7,137.4c-14.2,45.8-28.4,91.6-42.7,137.8c-18.4,0-36.6,0-56.4,0
				c-27.7-91.5-55.5-183.2-83.4-275c-0.8,0.1-1.5,0.3-2.3,0.5c0,91,0,182.1,0,272.8c-9,2.8-46.2,3.6-66.7,1.6
				c-2.5-8-3.4-329.2-0.9-347.4c41.8,0,83.6,0,126.5,0c20,67.9,39.9,135.8,59.9,203.8c24-67.5,44.2-135.8,65.9-204
				C4310,663.4,4351.5,663.4,4393,663.4z"/>
			<path class="st0" d="M3845.5,1010.9c-29.6,0-57.9,0-87.7,0c-6.9-22.8-13.9-46.1-21.2-70c-37.4,0-74.5,0-112.8,0
				c-7.2,23-14.4,46.3-21.9,70.2c-23.6,0-46.8,0-71.3,0c1.3-4.2,2.3-8,3.4-11.6c34.7-108.3,69.3-216.5,104.2-324.8
				c3.8-11.9,0.6-11.8,16.3-11.8c23,0,46,0,69,0c3.9,0,7.9,0,12.8,0C3773,779.4,3809.1,894.6,3845.5,1010.9z M3644.5,875
				c24.8,0,48,0,72.4,0c-11.8-39.7-23.4-78.3-34.9-117c-0.9,0-1.8,0-2.7,0c-5.9,19.5-12,38.8-17.8,58.3
				C3655.9,835.7,3648.9,854.8,3644.5,875z"/>
			<path class="st0" d="M3523.6,1010.9c-30.5,0-59.6,0-90,0c-22.4-48.9-45.1-98.5-68.4-149.4c-2.6,3-4.7,5-6.4,7.5
				c-12.8,18.6-25.4,37.4-38.4,55.9c-3.4,4.8-4.8,9.7-4.7,15.5c0.2,19.4,0.1,38.9,0.1,58.3c0,3.9-0.3,7.8-0.5,12.4
				c-26.6,0-52.5,0-79.1,0c0-115.8,0-231,0-348c26-0.2,52-0.1,79.6,0c0.2,27.5,0.1,53.9,0.1,80.3c0,26.1,0,52.2,0,78.3
				c0.8,0.4,1.6,0.7,2.3,1.1c2.3-3.3,4.7-6.6,7-9.9c31-46.5,62.2-92.9,92.8-139.7c4.9-7.5,10.2-10.6,19.2-10.3
				c20.9,0.7,41.9,0.2,65.9,0.2c-28.9,43-56.3,83.7-83.9,124.6C3454,861.8,3488.5,935.7,3523.6,1010.9z"/>
			<path class="st0" d="M3164.2,663.7c0,115.7,0,230.9,0,346.1c-8,2.5-59.9,3.2-78.9,1.2c-2.3-8.3-3.1-329.2-0.8-347.3
				C3110.8,663.7,3137.1,663.7,3164.2,663.7z"/>
			<path class="st0" d="M2983.6,663.3c22.7,0,44.4,0,66.1,0c0,10-88.5,307.8-103.2,347.7c-28.9,0-58,0-88.1,0
				c-34.6-115.3-69.2-230.5-104.3-347.5c29.7,0,57.6,0,86.8,0c22.9,81.4,45.9,162.8,68.8,244.3c11.2-26.2,18-53.5,26-80.3
				c8.1-27.3,15.9-54.7,23.9-82.1C2967.6,718,2975.6,690.8,2983.6,663.3z"/>
			<path class="st0" d="M2771.2,1009.1c-7.9,3.2-63.2,4.2-87.1,1.6c-7.1-23.4-14.1-46.5-21.2-70c-37.7,0-74.9,0-112.8,0
				c-7.3,23.3-14.6,46.7-21.9,70.3c-23.7,0-46.9,0-71.5,0c37.3-116.3,74.2-231.6,111.4-347.5c31.6,0,62.7,0,94.8,0
				C2699,778.8,2735.1,894,2771.2,1009.1z M2570.4,875.2c24.9,0,48.2,0,71.5,0c-1.6-14.3-31.3-111.2-36.3-117.7
				C2594,796.7,2581.4,835.3,2570.4,875.2z"/>
			<path class="st0" d="M2448.7,942.4c0,24.2,0,46.2,0,68.7c-73.6,0-146.4,0-219.1,0c-2.5-9.7-2.8-335.3-0.4-347.6
				c26.3,0,52.7,0,80.3,0c1.3,15.5,0.4,30.8,0.6,46c0.2,15.5,0,30.9,0,46.4c0,15.5,0,30.9,0,46.4c0,15.5,0,30.9,0,46.4
				s0,30.9,0,46.4c0,15.4,0,30.7,0,47.3C2356.8,942.4,2402.2,942.4,2448.7,942.4z"/>
			<path class="st0" d="M2189.9,1011.3c-30.6,0-58.7,0-87.6,0c-7.2-23.6-14.3-47-21.5-70.6c-37.8,0-74.9,0-112.7,0
				c-7.4,23.7-14.6,47-22,70.5c-23.7,0-46.6,0-71.5,0c37.3-116.5,74.4-232.1,111.5-347.8c31.8,0,62.6,0,94.7,0
				C2117,778.7,2153.2,894.3,2189.9,1011.3z M1988.1,875c25,0,48.2,0,73.1,0c-11.9-40-23.5-79-35.2-117.9c-0.8,0-1.6,0.1-2.3,0.1
				C2011.9,796.3,2000.1,835.4,1988.1,875z"/>
			<path class="st0" d="M1838.9,665.3c0.2,112.6,0.5,225.2,0.6,337.8c0,2.3-0.4,4.6-0.8,7.8c-26.6,0-53,0-81.2,0
				c-0.2-91.4,0-182.8-0.1-274.2c-0.9-0.2-1.8-0.4-2.7-0.6c-28.3,91.4-56.5,182.8-85,274.9c-18.4,0-36.5,0-56.1,0
				c-28.9-90.8-55.5-183-83.7-274.7c-0.8,0.1-1.6,0.2-2.4,0.3c0,91.2,0,182.4,0,274.4c-22.9,0-44.6,0-66.2,0
				c-2.6-7.9-3.5-329-0.9-347.2c41.3,0,82.8,0,126.1,0c19.8,67.3,39.9,135.5,59.9,203.6c0.9,0.1,1.7,0.1,2.6,0.2
				c21-67.9,42.1-135.7,63.2-204c42.2,0,83.7,0,125.1,0c0.4,0.3,0.7,0.5,1,0.8C1838.6,664.6,1838.9,665,1838.9,665.3z"/>
			<path class="st0" d="M1365.6,1080.6c0.5,1.4,0.7,2.8,1.5,6.2c-4.6-3.6-7.8-5.9-10.7-8.3c-64.2-53.5-138.5-84.4-220.9-95.1
				c-67.9-8.8-135.2-4-201.8,12.4c-108.9,26.9-217.3,55.5-325.1,86.2c-32.7,9.3-66.5,15-99.7,22.3c-7.7,1.7-15.4,3.2-23.1,4.8
				c-0.3-0.6-0.7-1.2-1-1.8c1.6-1,3.2-2,5-2.9c74.6-35.7,127.5-92.8,163.5-166.4c3.4-7,7.7-11,15.1-13.4
				c91.3-29.5,183.3-56.4,277.3-76c54-11.2,108.5-15.4,163.2-8.1c75.8,10.1,142.8,40.8,201.2,90.3c3.1,2.7,5.8,6.6,7.2,10.5
				C1333.4,987.8,1349.5,1034.2,1365.6,1080.6z"/>
			<path class="st0" d="M347.2,472.4c175.4-4.3,327.8,146.8,327.7,327.5c-0.1,178.3-149.9,329-330.7,327.8
				c-176.7-1.2-326.3-151.3-325.8-329.1C18.8,620.8,170.5,467.3,347.2,472.4z M608,745.4c0.3-44.2-37.8-86.5-86-84.4
				c-48.1-1.9-86.3,40.3-85.9,84.5c0.5,48.8,38,87,86.6,86.8C570.4,832.2,607.7,793.7,608,745.4z M543.8,953.7
				c0.8-45-38.3-85.7-85-86.1c-50.2-0.5-88.5,41.8-86.9,85c-2,48.3,40.4,87.3,85.2,87C505,1039.2,542.9,1001.5,543.8,953.7z
				 M350.1,712.8c48.2,0,86.2-37.9,86.2-86c-0.1-47.6-37.7-85.1-85.5-85.4c-49-0.2-86.4,36.7-86.4,85.3
				C264.4,675.5,301.5,712.8,350.1,712.8z M331.9,952.9c0.5-44.3-38.2-86.9-85.7-84.9c-49.2-2.1-86.1,41.1-86.6,84
				c-0.5,48.9,41.2,88.1,86.3,87.5C293.6,1038.9,331.4,1000.9,331.9,952.9z M177.7,832.3c48.1,0.2,87-38.8,86.8-86.8
				c-0.2-47.5-41-86.7-86.1-84.5c-45.9-2.2-85.9,37.6-85.9,84.4C92.6,793.5,130.1,832.1,177.7,832.3z"/>
		</g>
		<g>
		</g>
	</g>
</g>
</svg>
